<svg width="670" height="152" viewBox="0 0 670 152" fill="none" xmlns="http://www.w3.org/2000/svg">
<path d="M19.7871 130.499V146H24.9971C29.6055 146 32.3125 143.132 32.3125 138.244C32.3125 133.367 29.5947 130.499 24.9971 130.499H19.7871ZM21.7207 132.239H24.8682C28.3916 132.239 30.3359 134.388 30.3359 138.266C30.3359 142.111 28.3809 144.26 24.8682 144.26H21.7207V132.239ZM39.0586 146.193C42.1416 146.193 44.2256 143.97 44.2256 140.414C44.2256 136.848 42.1416 134.635 39.0586 134.635C35.9648 134.635 33.8809 136.848 33.8809 140.414C33.8809 143.97 35.9648 146.193 39.0586 146.193ZM39.0586 144.55C37.082 144.55 35.7822 143.046 35.7822 140.414C35.7822 137.782 37.082 136.278 39.0586 136.278C41.0352 136.278 42.3242 137.782 42.3242 140.414C42.3242 143.046 41.0352 144.55 39.0586 144.55ZM55.3975 138.491C55.1611 136.482 53.4961 134.635 50.7031 134.635C47.6201 134.635 45.5684 136.891 45.5684 140.414C45.5684 144.013 47.6309 146.193 50.7246 146.193C53.2598 146.193 55.1289 144.625 55.4189 142.401H53.582C53.2598 143.744 52.2607 144.55 50.7354 144.55C48.8018 144.55 47.4697 143.014 47.4697 140.414C47.4697 137.879 48.7803 136.278 50.7139 136.278C52.3574 136.278 53.3027 137.277 53.5713 138.491H55.3975ZM57.7393 132.132V134.828H56.0742V136.364H57.7393V143.1C57.7393 145.248 58.5342 146.086 60.5859 146.086C61.0264 146.086 61.542 146.054 61.7676 146V144.432C61.6387 144.453 61.209 144.485 60.9941 144.485C60.0381 144.485 59.6084 144.023 59.6084 143.003V136.364H61.7783V134.828H59.6084V132.132H57.7393ZM68.084 146.193C71.167 146.193 73.251 143.97 73.251 140.414C73.251 136.848 71.167 134.635 68.084 134.635C64.9902 134.635 62.9062 136.848 62.9062 140.414C62.9062 143.97 64.9902 146.193 68.084 146.193ZM68.084 144.55C66.1074 144.55 64.8076 143.046 64.8076 140.414C64.8076 137.782 66.1074 136.278 68.084 136.278C70.0605 136.278 71.3496 137.782 71.3496 140.414C71.3496 143.046 70.0605 144.55 68.084 144.55ZM75.1416 146H77.0107V139.039C77.0107 137.46 77.9561 136.418 79.4062 136.418C79.8574 136.418 80.2549 136.472 80.4053 136.525V134.71C80.2549 134.688 79.9756 134.635 79.6533 134.635C78.3428 134.635 77.3115 135.419 76.9463 136.654H76.9033V134.828H75.1416V146Z" fill="#303053"/>
<path d="M195.619 146C198.917 146 200.872 144.378 200.872 141.649C200.872 139.587 199.519 138.104 197.413 137.836V137.75C198.906 137.481 200.088 135.978 200.088 134.366C200.088 132.046 198.294 130.499 195.641 130.499H189.765V146H195.619ZM191.698 132.207H195.2C197.08 132.207 198.133 133.056 198.133 134.592C198.133 136.268 196.887 137.181 194.599 137.181H191.698V132.207ZM191.698 144.292V138.846H195.146C197.617 138.846 198.885 139.759 198.885 141.553C198.885 143.347 197.66 144.292 195.329 144.292H191.698ZM202.87 146H204.739V130.499H202.87V146ZM211.894 146.193C214.977 146.193 217.061 143.97 217.061 140.414C217.061 136.848 214.977 134.635 211.894 134.635C208.8 134.635 206.716 136.848 206.716 140.414C206.716 143.97 208.8 146.193 211.894 146.193ZM211.894 144.55C209.917 144.55 208.617 143.046 208.617 140.414C208.617 137.782 209.917 136.278 211.894 136.278C213.87 136.278 215.159 137.782 215.159 140.414C215.159 143.046 213.87 144.55 211.894 144.55ZM223.581 146.193C226.664 146.193 228.748 143.97 228.748 140.414C228.748 136.848 226.664 134.635 223.581 134.635C220.487 134.635 218.403 136.848 218.403 140.414C218.403 143.97 220.487 146.193 223.581 146.193ZM223.581 144.55C221.604 144.55 220.305 143.046 220.305 140.414C220.305 137.782 221.604 136.278 223.581 136.278C225.558 136.278 226.847 137.782 226.847 140.414C226.847 143.046 225.558 144.55 223.581 144.55ZM234.871 146.193C236.482 146.193 237.761 145.398 238.48 144.109H238.513V146H240.296V130.499H238.427V136.644H238.384C237.718 135.419 236.429 134.635 234.828 134.635C232.014 134.635 230.091 136.912 230.091 140.414C230.091 143.916 232.024 146.193 234.871 146.193ZM235.226 136.278C237.148 136.278 238.438 137.922 238.438 140.414C238.438 142.917 237.148 144.55 235.226 144.55C233.249 144.55 232.003 142.949 232.003 140.414C232.003 137.89 233.249 136.278 235.226 136.278ZM253.477 146C256.774 146 258.729 144.378 258.729 141.649C258.729 139.587 257.376 138.104 255.271 137.836V137.75C256.764 137.481 257.945 135.978 257.945 134.366C257.945 132.046 256.151 130.499 253.498 130.499H247.622V146H253.477ZM249.556 132.207H253.058C254.938 132.207 255.99 133.056 255.99 134.592C255.99 136.268 254.744 137.181 252.456 137.181H249.556V132.207ZM249.556 144.292V138.846H253.004C255.475 138.846 256.742 139.759 256.742 141.553C256.742 143.347 255.518 144.292 253.187 144.292H249.556ZM264.315 144.604C262.973 144.604 262.081 143.905 262.081 142.842C262.081 141.789 262.94 141.123 264.444 141.026L267.431 140.844V141.757C267.431 143.368 266.077 144.604 264.315 144.604ZM263.896 146.193C265.4 146.193 266.818 145.355 267.484 144.077H267.527V146H269.3V138.276C269.3 136.053 267.646 134.635 265.024 134.635C262.382 134.635 260.728 136.117 260.599 138.051H262.403C262.64 136.955 263.542 136.278 264.981 136.278C266.528 136.278 267.431 137.095 267.431 138.459V139.394L264.229 139.576C261.651 139.727 260.18 140.93 260.18 142.842C260.18 144.851 261.673 146.193 263.896 146.193ZM271.674 146H273.543V139.426C273.543 137.535 274.692 136.289 276.454 136.289C278.173 136.289 279.021 137.277 279.021 139.082V146H280.891V138.749C280.891 136.214 279.473 134.635 277.023 134.635C275.294 134.635 274.102 135.408 273.479 136.611H273.436V134.828H271.674V146ZM285.241 139.791V130.499H283.372V146H285.241V141.789L286.283 140.801L290.43 146H292.6L287.604 139.651L292.449 134.828H290.183L285.241 139.791Z" fill="#303053"/>
<path d="M388.68 146H390.71L384.995 130.499H383.083L377.368 146H379.398L380.956 141.563H387.122L388.68 146ZM384.007 132.852H384.071L386.553 139.92H381.525L384.007 132.852ZM392.192 146H394.062V138.996C394.062 137.449 395.136 136.289 396.618 136.289C398.004 136.289 398.906 137.17 398.906 138.513V146H400.775V138.899C400.775 137.385 401.817 136.289 403.3 136.289C404.771 136.289 405.62 137.191 405.62 138.717V146H407.489V138.287C407.489 136.074 406.061 134.635 403.848 134.635C402.279 134.635 400.969 135.43 400.346 136.762H400.303C399.819 135.408 398.691 134.635 397.166 134.635C395.662 134.635 394.523 135.43 393.997 136.611H393.954V134.828H392.192V146ZM415.428 146.193C418.285 146.193 420.176 143.927 420.176 140.414C420.176 136.912 418.274 134.635 415.46 134.635C413.881 134.635 412.581 135.419 411.883 136.697H411.84V130.499H409.971V146H411.754V144.109H411.797C412.517 145.398 413.795 146.193 415.428 146.193ZM415.062 136.278C417.039 136.278 418.264 137.879 418.264 140.414C418.264 142.971 417.039 144.55 415.062 144.55C413.172 144.55 411.829 142.906 411.829 140.414C411.829 137.933 413.172 136.278 415.062 136.278ZM431.251 134.828H429.382V141.392C429.382 143.293 428.286 144.539 426.471 144.539C424.741 144.539 423.893 143.562 423.893 141.746V134.828H422.023V142.079C422.023 144.614 423.452 146.193 425.891 146.193C427.609 146.193 428.77 145.474 429.436 144.185H429.479V146H431.251V134.828ZM433.775 146H435.645V130.499H433.775V146ZM441.854 144.604C440.511 144.604 439.619 143.905 439.619 142.842C439.619 141.789 440.479 141.123 441.982 141.026L444.969 140.844V141.757C444.969 143.368 443.615 144.604 441.854 144.604ZM441.435 146.193C442.938 146.193 444.356 145.355 445.022 144.077H445.065V146H446.838V138.276C446.838 136.053 445.184 134.635 442.562 134.635C439.92 134.635 438.266 136.117 438.137 138.051H439.941C440.178 136.955 441.08 136.278 442.52 136.278C444.066 136.278 444.969 137.095 444.969 138.459V139.394L441.768 139.576C439.189 139.727 437.718 140.93 437.718 142.842C437.718 144.851 439.211 146.193 441.435 146.193ZM449.212 146H451.081V139.426C451.081 137.535 452.23 136.289 453.992 136.289C455.711 136.289 456.56 137.277 456.56 139.082V146H458.429V138.749C458.429 136.214 457.011 134.635 454.562 134.635C452.832 134.635 451.64 135.408 451.017 136.611H450.974V134.828H449.212V146ZM470.095 138.491C469.858 136.482 468.193 134.635 465.4 134.635C462.317 134.635 460.266 136.891 460.266 140.414C460.266 144.013 462.328 146.193 465.422 146.193C467.957 146.193 469.826 144.625 470.116 142.401H468.279C467.957 143.744 466.958 144.55 465.433 144.55C463.499 144.55 462.167 143.014 462.167 140.414C462.167 137.879 463.478 136.278 465.411 136.278C467.055 136.278 468 137.277 468.269 138.491H470.095ZM476.314 136.257C478.076 136.257 479.247 137.589 479.29 139.458H473.221C473.339 137.6 474.563 136.257 476.314 136.257ZM479.247 142.799C478.936 143.852 477.894 144.571 476.476 144.571C474.467 144.571 473.21 143.164 473.21 141.026V140.919H481.224V140.21C481.224 136.826 479.365 134.635 476.347 134.635C473.264 134.635 471.287 136.987 471.287 140.457C471.287 143.97 473.231 146.193 476.433 146.193C478.871 146.193 480.762 144.754 481.084 142.799H479.247Z" fill="#303053"/>
<path d="M594.948 146V130.499H593.015V137.202H584.507V130.499H582.573V146H584.507V138.942H593.015V146H594.948ZM602.296 146.193C605.379 146.193 607.463 143.97 607.463 140.414C607.463 136.848 605.379 134.635 602.296 134.635C599.202 134.635 597.118 136.848 597.118 140.414C597.118 143.97 599.202 146.193 602.296 146.193ZM602.296 144.55C600.319 144.55 599.02 143.046 599.02 140.414C599.02 137.782 600.319 136.278 602.296 136.278C604.272 136.278 605.562 137.782 605.562 140.414C605.562 143.046 604.272 144.55 602.296 144.55ZM609.16 137.911C609.16 139.437 610.127 140.446 612.093 140.951L614.059 141.456C615.315 141.789 615.777 142.219 615.777 143.014C615.777 144.023 614.843 144.668 613.328 144.668C611.813 144.668 610.933 144.045 610.729 142.885H608.859C609.053 144.861 610.761 146.193 613.21 146.193C615.82 146.193 617.657 144.818 617.657 142.874C617.657 141.23 616.841 140.414 614.585 139.845L612.855 139.426C611.588 139.104 610.997 138.588 610.997 137.814C610.997 136.837 611.899 136.16 613.264 136.16C614.639 136.16 615.509 136.826 615.638 137.9H617.421C617.335 136.01 615.638 134.635 613.328 134.635C610.868 134.635 609.16 135.999 609.16 137.911ZM625.026 134.635C623.404 134.635 622.104 135.462 621.417 136.719H621.374V134.828H619.602V149.728H621.471V144.185H621.514C622.18 145.409 623.469 146.193 625.069 146.193C627.884 146.193 629.807 143.916 629.807 140.414C629.807 136.912 627.873 134.635 625.026 134.635ZM624.661 144.55C622.749 144.55 621.46 142.906 621.46 140.414C621.46 137.933 622.749 136.278 624.661 136.278C626.648 136.278 627.895 137.89 627.895 140.414C627.895 142.949 626.648 144.55 624.661 144.55ZM631.794 146H633.663V134.828H631.794V146ZM632.729 132.948C633.373 132.948 633.899 132.422 633.899 131.788C633.899 131.144 633.373 130.628 632.729 130.628C632.095 130.628 631.568 131.144 631.568 131.788C631.568 132.422 632.095 132.948 632.729 132.948ZM636.789 132.132V134.828H635.124V136.364H636.789V143.1C636.789 145.248 637.584 146.086 639.636 146.086C640.076 146.086 640.592 146.054 640.817 146V144.432C640.688 144.453 640.259 144.485 640.044 144.485C639.088 144.485 638.658 144.023 638.658 143.003V136.364H640.828V134.828H638.658V132.132H636.789ZM646.296 144.604C644.953 144.604 644.062 143.905 644.062 142.842C644.062 141.789 644.921 141.123 646.425 141.026L649.411 140.844V141.757C649.411 143.368 648.058 144.604 646.296 144.604ZM645.877 146.193C647.381 146.193 648.799 145.355 649.465 144.077H649.508V146H651.28V138.276C651.28 136.053 649.626 134.635 647.005 134.635C644.362 134.635 642.708 136.117 642.579 138.051H644.384C644.62 136.955 645.522 136.278 646.962 136.278C648.509 136.278 649.411 137.095 649.411 138.459V139.394L646.21 139.576C643.632 139.727 642.16 140.93 642.16 142.842C642.16 144.851 643.653 146.193 645.877 146.193ZM653.751 146H655.62V130.499H653.751V146Z" fill="#303053"/>
<rect x="190" width="100" height="100" rx="50" fill="white"/>
<path fill-rule="evenodd" clip-rule="evenodd" d="M242.965 37.8794C244.087 37.8794 244.997 38.7888 244.997 39.9106V45.9043C244.997 47.0261 244.087 47.9355 242.965 47.9355C241.844 47.9355 240.934 47.0261 240.934 45.9043V39.9106C240.934 38.7888 241.844 37.8794 242.965 37.8794Z" fill="#6A6D87"/>
<path fill-rule="evenodd" clip-rule="evenodd" d="M237.932 42.9072C237.932 41.7854 238.841 40.876 239.963 40.876H245.967C247.089 40.876 247.998 41.7854 247.998 42.9072C247.998 44.0291 247.089 44.9385 245.967 44.9385H239.963C238.841 44.9385 237.932 44.0291 237.932 42.9072Z" fill="#6A6D87"/>
<path fill-rule="evenodd" clip-rule="evenodd" d="M242.965 24C244.087 24 244.997 24.9094 244.997 26.0313V28.0773C244.997 29.1992 244.087 30.1086 242.965 30.1086C241.844 30.1086 240.934 29.1992 240.934 28.0773V26.0313C240.934 24.9094 241.844 24 242.965 24Z" fill="#6A6D87"/>
<path fill-rule="evenodd" clip-rule="evenodd" d="M242.965 56.8267C244.087 56.8267 244.996 57.7361 244.996 58.8579V68.6007C244.996 72.6906 241.676 76 237.588 76C233.499 76 230.179 72.6906 230.179 68.6007V65.3765C230.179 64.2663 229.276 63.3602 228.155 63.3602C227.034 63.3602 226.132 64.2663 226.132 65.3765V69.7628C226.132 70.8846 225.222 71.794 224.101 71.794C222.979 71.794 222.069 70.8846 222.069 69.7628V65.3765C222.069 62.0159 224.798 59.2977 228.155 59.2977C231.513 59.2977 234.241 62.0159 234.241 65.3765V68.6007C234.241 70.4402 235.736 71.9375 237.588 71.9375C239.439 71.9375 240.934 70.4402 240.934 68.6007V58.8579C240.934 57.7361 241.843 56.8267 242.965 56.8267Z" fill="#6A6D87"/>
<path fill-rule="evenodd" clip-rule="evenodd" d="M228 34.7645C228 30.2275 231.683 26.5557 236.219 26.5557H249.711C254.247 26.5557 257.931 30.2275 257.931 34.7645V39.1805C257.931 40.3023 257.021 41.2117 255.9 41.2117C254.778 41.2117 253.868 40.3023 253.868 39.1805V34.7645C253.868 32.4779 252.01 30.6182 249.711 30.6182H236.219C233.92 30.6182 232.062 32.4779 232.062 34.7645V48.7777C232.062 50.3331 232.935 51.7593 234.326 52.469C234.326 52.469 234.326 52.469 234.326 52.469L241.072 55.9113C242.261 56.5181 243.67 56.5181 244.859 55.9113L244.859 55.9113L251.605 52.469L251.605 52.469C252.883 51.8169 253.724 50.5593 253.851 49.153C253.953 48.0358 254.941 47.2124 256.058 47.3138C257.175 47.4153 257.999 48.4032 257.897 49.5205C257.644 52.3101 255.977 54.7986 253.451 56.0876L246.705 59.5299C244.357 60.7286 241.574 60.7285 239.225 59.5299L239.225 59.5299L232.479 56.0876L232.479 56.0875C229.731 54.6852 228 51.8626 228 48.7777V34.7645Z" fill="#6A6D87"/>
<rect x="380" width="100" height="100" rx="50" fill="white"/>
<g clip-path="url(#clip0_801_159)">
<path d="M455.87 51.0888C455.814 50.9464 455.743 50.8103 455.659 50.6825L446.542 38.235C446.06 37.5758 445.429 37.0395 444.701 36.6697C443.972 36.2998 443.167 36.1068 442.35 36.1062H438.678V34.3837C438.678 33.4615 438.311 32.5769 437.659 31.9248C437.007 31.2726 436.122 30.9062 435.2 30.9062H432.324C431.404 30.9105 430.524 31.2788 429.875 31.9305C429.227 32.5822 428.862 33.4643 428.863 34.3837V36.1062H412.613C410.325 36.1234 408.137 37.0429 406.524 38.6649C404.911 40.2869 404.004 42.4801 404 44.7675V60.3675C404 61.5187 404.384 62.6371 405.09 63.5462C405.796 64.4554 406.785 65.1037 407.9 65.3887C408.336 65.4752 408.789 65.3913 409.165 65.1543C409.541 64.9173 409.812 64.5452 409.923 64.1145C410.033 63.6837 409.974 63.2271 409.758 62.8385C409.542 62.4499 409.185 62.1588 408.761 62.025C408.397 61.933 408.073 61.7244 407.838 61.431C407.603 61.1376 407.471 60.7756 407.461 60.4V44.8C407.461 43.4209 408.009 42.0982 408.984 41.123C409.959 40.1479 411.282 39.6 412.661 39.6H435.2V44.8C435.204 47.0958 436.118 49.2963 437.742 50.9197C439.365 52.5431 441.565 53.457 443.861 53.4612H452.522V60.4C452.513 60.7756 452.38 61.1376 452.146 61.431C451.911 61.7244 451.587 61.933 451.222 62.025C450.798 62.1588 450.442 62.4499 450.226 62.8385C450.01 63.2271 449.951 63.6837 450.061 64.1145C450.171 64.5452 450.443 64.9173 450.819 65.1543C451.195 65.3913 451.648 65.4752 452.084 65.3887C453.202 65.1067 454.194 64.4598 454.904 63.5504C455.613 62.6409 455.999 61.5209 456 60.3675V51.625C455.986 51.4404 455.942 51.2594 455.87 51.0888ZM432.324 34.3837H435.2V36.1062H432.324V34.3837ZM443.861 49.9837C442.482 49.9837 441.159 49.4359 440.184 48.4607C439.209 47.4855 438.661 46.1629 438.661 44.7837V39.5675H442.334C442.607 39.5674 442.876 39.6322 443.119 39.7565C443.362 39.8809 443.572 40.0611 443.731 40.2825L450.849 50.0325L443.861 49.9837Z" fill="#6A6D87"/>
<path d="M442.139 69.9062C440.94 69.9062 439.768 69.5507 438.771 68.8847C437.774 68.2187 436.998 67.272 436.539 66.1645C436.08 65.0569 435.96 63.8382 436.194 62.6625C436.428 61.4867 437.005 60.4067 437.853 59.559C438.7 58.7113 439.78 58.134 440.956 57.9002C442.132 57.6663 443.351 57.7863 444.458 58.2451C445.566 58.7038 446.512 59.4807 447.178 60.4775C447.844 61.4743 448.2 62.6461 448.2 63.8449C448.196 65.4512 447.556 66.9904 446.42 68.1262C445.284 69.2619 443.745 69.9019 442.139 69.9062ZM442.139 61.2449C441.624 61.2449 441.122 61.3974 440.694 61.6831C440.267 61.9688 439.933 62.3749 439.737 62.85C439.54 63.3251 439.488 63.8478 439.589 64.3522C439.689 64.8565 439.937 65.3198 440.3 65.6834C440.664 66.047 441.127 66.2947 441.631 66.395C442.136 66.4953 442.659 66.4438 443.134 66.247C443.609 66.0502 444.015 65.717 444.3 65.2894C444.586 64.8619 444.739 64.3592 444.739 63.8449C444.739 63.1554 444.465 62.4941 443.977 62.0065C443.49 61.5189 442.828 61.2449 442.139 61.2449Z" fill="#6A6D87"/>
<path d="M417.861 69.9062C416.662 69.9062 415.491 69.5507 414.494 68.8847C413.497 68.2187 412.72 67.272 412.261 66.1645C411.803 65.0569 411.683 63.8382 411.917 62.6625C412.15 61.4867 412.728 60.4067 413.575 59.559C414.423 58.7113 415.503 58.134 416.679 57.9002C417.855 57.6663 419.073 57.7863 420.181 58.2451C421.288 58.7038 422.235 59.4807 422.901 60.4775C423.567 61.4743 423.923 62.6461 423.923 63.8449C423.918 65.4512 423.278 66.9904 422.143 68.1262C421.007 69.2619 419.468 69.9019 417.861 69.9062ZM417.861 61.2449C417.347 61.2449 416.844 61.3974 416.417 61.6831C415.989 61.9688 415.656 62.3749 415.459 62.85C415.262 63.3251 415.211 63.8478 415.311 64.3522C415.412 64.8565 415.659 65.3198 416.023 65.6834C416.386 66.047 416.85 66.2947 417.354 66.395C417.858 66.4953 418.381 66.4438 418.856 66.247C419.331 66.0502 419.737 65.717 420.023 65.2894C420.309 64.8619 420.461 64.3592 420.461 63.8449C420.461 63.1554 420.187 62.4941 419.7 62.0065C419.212 61.5189 418.551 61.2449 417.861 61.2449Z" fill="#6A6D87"/>
<path d="M432.6 65.5675H427.384C427.142 65.5909 426.899 65.5636 426.669 65.4873C426.438 65.411 426.227 65.2873 426.047 65.1244C425.868 64.9614 425.724 64.7627 425.626 64.5409C425.528 64.3192 425.477 64.0794 425.477 63.8369C425.477 63.5944 425.528 63.3546 425.626 63.1329C425.724 62.9111 425.868 62.7124 426.047 62.5494C426.227 62.3864 426.438 62.2628 426.669 62.1865C426.899 62.1102 427.142 62.0829 427.384 62.1063H432.6C433.03 62.148 433.429 62.3483 433.72 62.6683C434.01 62.9882 434.171 63.4048 434.171 63.8369C434.171 64.269 434.01 64.6856 433.72 65.0055C433.429 65.3254 433.03 65.5258 432.6 65.5675Z" fill="#6A6D87"/>
<path d="M422.2 44.7675H421.339V43.7763C421.362 43.5349 421.335 43.2913 421.258 43.0612C421.182 42.831 421.058 42.6193 420.896 42.4398C420.733 42.2602 420.534 42.1167 420.312 42.0185C420.09 41.9204 419.851 41.8696 419.608 41.8696C419.366 41.8696 419.126 41.9204 418.904 42.0185C418.682 42.1167 418.484 42.2602 418.321 42.4398C418.158 42.6193 418.034 42.831 417.958 43.0612C417.881 43.2913 417.854 43.5349 417.877 43.7763V44.7675H417C416.759 44.7441 416.515 44.7714 416.285 44.8478C416.055 44.9241 415.843 45.0477 415.663 45.2107C415.484 45.3737 415.34 45.5724 415.242 45.7941C415.144 46.0158 415.093 46.2557 415.093 46.4981C415.093 46.7406 415.144 46.9805 415.242 47.2022C415.34 47.4239 415.484 47.6226 415.663 47.7856C415.843 47.9486 416.055 48.0722 416.285 48.1485C416.515 48.2249 416.759 48.2522 417 48.2288H417.861V48.96C417.838 49.2014 417.865 49.445 417.941 49.6751C418.018 49.9053 418.141 50.117 418.304 50.2965C418.467 50.4761 418.666 50.6196 418.888 50.7178C419.109 50.8159 419.349 50.8667 419.592 50.8667C419.834 50.8667 420.074 50.8159 420.296 50.7178C420.518 50.6196 420.716 50.4761 420.879 50.2965C421.042 50.117 421.166 49.9053 421.242 49.6751C421.318 49.445 421.346 49.2014 421.322 48.96V48.2288H422.184C422.425 48.2522 422.669 48.2249 422.899 48.1485C423.129 48.0722 423.341 47.9486 423.52 47.7856C423.7 47.6226 423.843 47.4239 423.941 47.2022C424.04 46.9805 424.09 46.7406 424.09 46.4981C424.09 46.2557 424.04 46.0158 423.941 45.7941C423.843 45.5724 423.7 45.3737 423.52 45.2107C423.341 45.0477 423.129 44.9241 422.899 44.8478C422.669 44.7714 422.425 44.7441 422.184 44.7675H422.2Z" fill="#6A6D87"/>
</g>
<rect x="570" width="100" height="100" rx="50" fill="white"/>
<mask id="mask0_801_159" style="mask-type:luminance" maskUnits="userSpaceOnUse" x="597" y="27" width="45" height="45">
<path d="M597.25 27.25H641.938V71.9375H597.25V27.25Z" fill="white"/>
</mask>
<g mask="url(#mask0_801_159)">
<path fill-rule="evenodd" clip-rule="evenodd" d="M600.826 64.3456C600.826 67.5709 603.44 70.1855 606.666 70.1855H632.546C635.771 70.1855 638.386 67.571 638.386 64.3456V46.3159C638.386 45.9268 638.23 45.5539 637.952 45.2812L622.659 30.251C622.659 30.251 622.659 30.251 622.659 30.251C620.964 28.585 618.247 28.585 616.552 30.251C616.552 30.251 616.552 30.251 616.552 30.251L601.26 45.2812C600.982 45.5539 600.826 45.9268 600.826 46.3159V64.3456ZM606.666 67.2838C605.043 67.2838 603.727 65.9683 603.727 64.3456V46.9243L618.586 32.3205L618.586 32.3205C619.152 31.7642 620.059 31.7642 620.625 32.3205L620.625 32.3205L635.484 46.9243V64.3456C635.484 65.9683 634.169 67.2838 632.546 67.2838H606.666Z" fill="#6A6D87"/>
<path fill-rule="evenodd" clip-rule="evenodd" d="M641.675 50.9748C642.237 50.4033 642.229 49.4847 641.657 48.923L622.659 30.251L621.642 31.2858L622.659 30.251C620.964 28.5851 618.247 28.5851 616.552 30.251L597.554 48.923C596.983 49.4847 596.975 50.4033 597.536 50.9748C598.098 51.5463 599.017 51.5543 599.588 50.9926L618.586 32.3205L617.642 31.3597L618.586 32.3205C619.152 31.7643 620.059 31.7643 620.625 32.3205L621.507 31.4238L620.625 32.3205L639.623 50.9926C640.195 51.5543 641.113 51.5463 641.675 50.9748Z" fill="#6A6D87"/>
<path fill-rule="evenodd" clip-rule="evenodd" d="M615.53 60.7161C615.53 61.5174 616.18 62.167 616.981 62.167H622.206C623.008 62.167 623.657 61.5174 623.657 60.7161V56.6448H627.728C628.529 56.6448 629.179 55.9952 629.179 55.1939V49.9688C629.179 49.1674 628.529 48.5179 627.728 48.5179H623.657V44.4464C623.657 43.6451 623.008 42.9956 622.206 42.9956H616.981C616.18 42.9956 615.53 43.6451 615.53 44.4464V48.5179H611.458C610.657 48.5179 610.008 49.1674 610.008 49.9688V55.1939C610.008 55.9952 610.657 56.6448 611.458 56.6448H615.53V60.7161ZM618.432 59.2652V55.1939C618.432 54.3926 617.782 53.743 616.981 53.743H612.909V51.4196H616.981C617.782 51.4196 618.432 50.7701 618.432 49.9688V45.8973H620.755V49.9688C620.755 50.7701 621.405 51.4196 622.206 51.4196H626.277V53.743H622.206C621.405 53.743 620.755 54.3926 620.755 55.1939V59.2652H618.432Z" fill="#6A6D87"/>
</g>
<rect width="100" height="100" rx="50" fill="white"/>
<g clip-path="url(#clip1_801_159)">
<mask id="mask1_801_159" style="mask-type:luminance" maskUnits="userSpaceOnUse" x="24" y="23" width="52" height="53">
<path d="M24 23.9995H76V75.9995H24V23.9995Z" fill="white"/>
</mask>
<g mask="url(#mask1_801_159)">
<path fill-rule="evenodd" clip-rule="evenodd" d="M50.0001 50.1079C44.533 50.1079 40.1011 45.6761 40.1011 40.2089V33.9098C40.1011 33.0367 40.3829 32.1869 40.9045 31.4867C40.9072 31.4832 40.9099 31.4796 40.9126 31.476C43.0039 28.6876 46.286 27.0465 49.7715 27.0465H50.2285C53.7141 27.0465 56.9963 28.6876 59.0876 31.476L59.0878 31.4764C59.0881 31.4768 59.0884 31.4772 59.0887 31.4776M59.089 31.478C59.6148 32.1798 59.8991 33.033 59.8991 33.9098V40.2089C59.8991 45.6761 55.4672 50.1079 50.0001 50.1079M37.0542 40.2089C37.0542 47.3589 42.8503 53.1548 50.0001 53.1548C57.1499 53.1548 62.9459 47.3589 62.9459 40.2089V33.9098C62.9459 32.3729 62.4473 30.8777 61.5254 29.6484L61.5251 29.648C61.5248 29.6476 61.5245 29.6472 61.5243 29.6469C58.8575 26.0918 54.6726 23.9996 50.2285 23.9996H49.7715C45.3323 23.9996 41.1518 26.0872 38.4846 29.6352C38.4813 29.6396 38.4779 29.644 38.4745 29.6485C37.5528 30.8778 37.0542 32.3729 37.0542 33.9098V40.2089Z" fill="#6A6D87"/>
<path fill-rule="evenodd" clip-rule="evenodd" d="M37.0542 38.5771C37.0542 39.4185 37.7363 40.1006 38.5776 40.1006C40.0264 40.1006 41.4159 39.5249 42.4403 38.5009L43.8023 37.1387C47.7677 38.791 52.2323 38.791 56.1977 37.1388L57.5597 38.5007C58.584 39.5249 59.9736 40.1006 61.4223 40.1006C62.2637 40.1006 62.9459 39.4185 62.9459 38.5771C62.9459 37.7358 62.2639 37.0537 61.4225 37.0537C60.7819 37.0537 60.1672 36.7992 59.7142 36.3463C59.7141 36.3462 59.7142 36.3463 59.7142 36.3463L57.6045 34.2366C57.3188 33.9509 56.9311 33.7902 56.5271 33.7902C56.2906 33.7902 56.0572 33.8453 55.8456 33.9511C52.1657 35.7911 47.8344 35.7911 44.1545 33.9511C43.9429 33.8453 43.7097 33.7902 43.4732 33.7902C43.0691 33.7902 42.6814 33.9507 42.3957 34.2364L40.2861 36.3461C40.286 36.3462 40.2862 36.3461 40.2861 36.3461C39.8329 36.799 39.2183 37.0537 38.5778 37.0537C37.7365 37.0537 37.0542 37.7358 37.0542 38.5771Z" fill="#6A6D87"/>
<path fill-rule="evenodd" clip-rule="evenodd" d="M25.0416 75.9214C25.8398 76.1875 26.7026 75.7561 26.9686 74.9579L25.5234 74.4761L24.0781 73.9944C23.812 74.7926 24.2434 75.6553 25.0416 75.9214ZM30.4031 64.6544C30.4031 64.6544 30.4031 64.6543 30.4031 64.6544L26.9686 74.9579C26.9686 74.9579 26.9686 74.9579 25.5234 74.4761C24.0781 73.9944 24.0781 73.9944 24.0781 73.9944L27.5125 63.6909C28.5881 60.4644 31.2777 58.0388 34.5976 57.3009L44.7739 55.0396C44.7739 55.0396 44.7741 55.0395 45.1046 56.5267L44.7739 55.0396C45.414 54.8974 46.0736 55.1806 46.4109 55.7429L49.9999 61.7245L53.5889 55.7429C53.9263 55.1806 54.5856 54.8973 55.2257 55.0395L54.8952 56.5267C55.2257 55.0395 55.2257 55.0395 55.2257 55.0395L65.4022 57.3009C68.7222 58.0388 71.4117 60.4644 72.4873 63.6908L75.9217 73.9941C75.9217 73.9942 75.9217 73.9944 74.4765 74.4761L75.9217 73.9941C76.1877 74.7923 75.7564 75.6553 74.9582 75.9214C74.16 76.1875 73.2973 75.7561 73.0312 74.9579L74.4765 74.4761C73.0312 74.9579 73.0312 74.9579 73.0312 74.9579L69.5968 64.6544C68.8597 62.4433 67.0165 60.7809 64.7412 60.2753C64.7412 60.2753 64.7412 60.2753 64.7412 60.2753L55.6366 58.2521L51.3063 65.4693C51.0309 65.9282 50.535 66.209 49.9999 66.209C49.4648 66.209 48.9689 65.9282 48.6936 65.4693L44.3632 58.2521L35.2587 60.2752C35.2587 60.2753 35.2587 60.2752 35.2587 60.2752C32.9834 60.7809 31.1402 62.4432 30.4031 64.6544Z" fill="#6A6D87"/>
<path fill-rule="evenodd" clip-rule="evenodd" d="M45.1047 58.0503C45.9461 58.0503 46.6282 57.3682 46.6282 56.5269V50.784C46.6282 49.9426 45.9461 49.2606 45.1047 49.2606C44.2634 49.2606 43.5813 49.9426 43.5813 50.784V56.5269C43.5813 57.3682 44.2634 58.0503 45.1047 58.0503Z" fill="#6A6D87"/>
<path fill-rule="evenodd" clip-rule="evenodd" d="M54.8953 58.0503C55.7366 58.0503 56.4187 57.3682 56.4187 56.5269V50.784C56.4187 49.9426 55.7366 49.2606 54.8953 49.2606C54.0539 49.2606 53.3718 49.9426 53.3718 50.784V56.5269C53.3718 57.3682 54.0539 58.0503 54.8953 58.0503Z" fill="#6A6D87"/>
<path fill-rule="evenodd" clip-rule="evenodd" d="M55.0037 74.4761C55.0037 75.3174 55.6857 75.9995 56.5271 75.9995H58.1589C59.0003 75.9995 59.6823 75.3174 59.6823 74.4761C59.6823 73.6347 59.0003 72.9526 58.1589 72.9526H58.0505V69.5808C58.0505 68.6865 58.4058 67.8289 59.0381 67.1966L59.0383 67.1965C59.6705 66.5641 60.5282 66.2089 61.4224 66.2089C63.2846 66.2089 64.7943 67.7185 64.7943 69.5808V72.9526H64.686C63.8446 72.9526 63.1626 73.6347 63.1626 74.4761C63.1626 75.3174 63.8446 75.9995 64.686 75.9995H66.3177C67.1591 75.9995 67.8412 75.3174 67.8412 74.4761V69.5808C67.8412 66.0358 64.9674 63.162 61.4224 63.162C59.7202 63.162 58.0875 63.8382 56.8838 65.042C56.8837 65.0421 56.8837 65.0421 56.8837 65.0421M56.8837 65.0421C55.6799 66.2459 55.0037 67.8785 55.0037 69.5808V74.4761" fill="#6A6D87"/>
<path fill-rule="evenodd" clip-rule="evenodd" d="M61.4224 64.5771C62.2637 64.5771 62.9458 63.8951 62.9458 63.0537V57.9771C62.9458 57.1357 62.2637 56.4537 61.4224 56.4537C60.581 56.4537 59.8989 57.1357 59.8989 57.9771V63.0537C59.8989 63.8951 60.581 64.5771 61.4224 64.5771Z" fill="#6A6D87"/>
<path fill-rule="evenodd" clip-rule="evenodd" d="M38.5777 72.9526C37.6179 72.9526 36.8376 72.1724 36.8376 71.2125C36.8376 70.2526 37.6179 69.4724 38.5777 69.4724C39.5376 69.4724 40.3178 70.2526 40.3178 71.2125C40.3178 72.1724 39.5375 72.9526 38.5777 72.9526ZM33.7908 71.2125C33.7908 73.855 35.9351 75.9995 38.5777 75.9995C41.2204 75.9995 43.3647 73.855 43.3647 71.2125C43.3647 68.5699 41.2203 66.4255 38.5777 66.4255C35.9351 66.4255 33.7908 68.5699 33.7908 71.2125Z" fill="#6A6D87"/>
<path fill-rule="evenodd" clip-rule="evenodd" d="M38.5776 69.4727C39.419 69.4727 40.1011 68.7906 40.1011 67.9492V57.9772C40.1011 57.1358 39.419 56.4538 38.5776 56.4538C37.7363 56.4538 37.0542 57.1358 37.0542 57.9772V67.9492C37.0542 68.7906 37.7363 69.4727 38.5776 69.4727Z" fill="#6A6D87"/>
</g>
</g>
<defs>
<clipPath id="clip0_801_159">
<rect width="52" height="52" fill="white" transform="translate(404 24)"/>
</clipPath>
<clipPath id="clip1_801_159">
<rect width="52" height="52" fill="white" transform="translate(24 24)"/>
</clipPath>
</defs>
</svg>
